HIERARCHY
ROOT Hips
{
	OFFSET	0.00	0.00	0.00
	CHANNELS 6 Xposition Yposition Zposition Zrotation Xrotation Yrotation
	JOINT Spine
	{
		OFFSET	 0.00	0.01	 0.00
		CHANNELS 3 Zrotation Xrotation Yrotation
		JOINT Spine1
		{
			OFFSET	 0.00	 2.45913012437421	 0.00
			CHANNELS 3 Zrotation Xrotation Yrotation
            JOINT Neck
            {
                OFFSET	 0.00	 2.48462964506057	 0.00
                CHANNELS 3 Zrotation Xrotation Yrotation
                JOINT Head
                {
                    OFFSET	 0.00	 0.927524780924562	 0.00
                    CHANNELS 3 Zrotation Xrotation Yrotation
                    End Site 
                    {
                        OFFSET	 0.00	 1.14999962169752	 0.00
                    }
                }
            }
			JOINT LeftShoulder
			{
				OFFSET	 0.00	 2.48462964506057	 0.00
				CHANNELS 3 Zrotation Xrotation Yrotation
				JOINT LeftUpArm
				{
					OFFSET	 0.00	 1.24881979654096	 0.00
					CHANNELS 3 Zrotation Xrotation Yrotation
					JOINT LeftForeArm
					{
						OFFSET	 0.00	2.59758046908119	 0.00
						CHANNELS 3 Zrotation Xrotation Yrotation
						JOINT LeftHand
						{
							OFFSET	 0.00	2.45542024364365	 0.00
							CHANNELS 3 Zrotation Xrotation Yrotation
							JOINT LeftHandThumb 
							{
								OFFSET	 0.00	0.00	 0.00
								CHANNELS 3 Zrotation Xrotation Yrotation
								End Site
								{
									OFFSET	 0.00	0.00	1.00000003353624
								}
							}
							JOINT L_Wrist_End 
							{
								OFFSET	 0.00	0.99999967115358	 0.00
								CHANNELS 3 Zrotation Xrotation Yrotation
								End Site 
								{
									OFFSET	 0.00	 0.00	 0.00
								}
							}
						}
					}
				}
			}
			JOINT RightShoulder
			{
				OFFSET	 0.00	 2.48462964506057	 0.00
				CHANNELS 3 Zrotation Xrotation Yrotation
				JOINT RightUpArm
				{
					OFFSET	 0.00	 1.24881979654096	 0.00
					CHANNELS 3 Zrotation Xrotation Yrotation
					JOINT RightForeArm
					{
						OFFSET	 0.00	2.59758046908119	 0.00
						CHANNELS 3 Zrotation Xrotation Yrotation
						JOINT RightHand
						{
							OFFSET	 0.00	2.45542024364365	 0.00
							CHANNELS 3 Zrotation Xrotation Yrotation
							JOINT RightHandThumb 
							{
								OFFSET	 0.00	0.00	 0.00
								CHANNELS 3 Zrotation Xrotation Yrotation
								End Site
								{
									OFFSET	 0.00	0.00	1.00000003353624
								}
							}
							JOINT R_Wrist_End 
							{
								OFFSET	 0.00	0.99999967115358	 0.00
								CHANNELS 3 Zrotation Xrotation Yrotation
								End Site 
								{
									OFFSET	 0.00	 0.00	 0.00
								}
							}
						}
					}
				}
			}
		}
	}
	JOINT LeftUpLeg
	{
		OFFSET	 1.2719394002717	 0.00	 0.00
		CHANNELS 3 Zrotation Xrotation Yrotation
		JOINT LeftLowLeg
		{
			OFFSET	 0.00	-4.3429100912261	 0.00
			CHANNELS 3 Zrotation Xrotation Yrotation
			JOINT LeftFoot
			{
				OFFSET	 0.00	-4.48767017425826	 0.00
				CHANNELS 3 Zrotation Xrotation Yrotation
				JOINT LeftToeBase
                {
                    OFFSET	 0.00	0.00	 1.51507020887566
                    CHANNELS 3 Zrotation Xrotation Yrotation
                    End Site 
                    {
                        OFFSET	 0.00	0.00	 0.75000010571191
                    }
                }
			}
		}
	}
	JOINT RightUpLeg
	{
		OFFSET	 -1.2719393604653	 0.00	 0.00
		CHANNELS 3 Zrotation Xrotation Yrotation
		JOINT RightLowLeg
		{
			OFFSET	 0.00	-4.3429100912261	 0.00
			CHANNELS 3 Zrotation Xrotation Yrotation
			JOINT RightFoot
			{
				OFFSET	 0.00	-4.48767017425826	 0.00
				CHANNELS 3 Zrotation Xrotation Yrotation
				JOINT RightToeBase
                {
                    OFFSET	 0.00	0.00	 1.51507020887566
                    CHANNELS 3 Zrotation Xrotation Yrotation
                    End Site 
                    {
                        OFFSET	 0.00	0.00	 0.749999965609858
                    }
                }   
			}
		}
	}
}
MOTION 
Frames:	6 
Frame Time: 0.02 
 4.657550048828125 12.853800048828125 10.623199462890625 -105.615 85.0816 70.6193 -1.58301 -22.7515 -7.18348 11.9479 33.1272 -4.16312 -23.144 36.6065 21.2771 25.175 -58.9057 28.6953 -123.5544 1.68084 -7.99708 -37.1882 -2.15967 38.4582 0.0 28.5469 0.0 8.81641 -7.42728 -1.87888 0.0 0.0 0.0 0.0 0.0 0.0 114.9522 -0.295726 2.55771 38.7711 3.26011 -14.8379 0.0 23.8133 0.0 -6.76622 -3.52855 12.7416 0.0 0.0 0.0 0.0 0.0 0.0 4.21122 10.0471 17.046 0.0 2.21846 0.0 -6.44195 6.1519403 8.70774 0.0 -10.69577 0.0 6.21791 9.41414 13.0408 0.0 8.98562 0.0 18.8819 8.00852 -21.1577 0.0 -14.182177 0.0 
  4.6585400390625 12.848900146484375 10.620400390625 -105.562 85.059 70.5256 -1.58685 -22.6962 -7.17525 11.9795 33.1515 -4.13682 -23.1474 36.5732 21.2674 25.2466 -58.9866 28.6467 -123.570206 1.57204 -8.04121 -37.2206 -2.32507 38.4866 0.0 28.2604 0.0 8.80962 -7.28097 -1.92728 0.0 0.0 0.0 0.0 0.0 0.0 114.912796 -0.321008 2.57393 38.7606 3.25307 -14.8426 0.0 23.7773 0.0 -6.74466 -3.54092 12.8145 0.0 0.0 0.0 0.0 0.0 0.0 4.23474 9.92964 17.0201 0.0 2.56291 0.0 -6.36521 5.8521404 8.79346 0.0 -10.73295 0.0 6.20037 9.45242 13.3839 0.0 9.00155 0.0 19.0569 7.83577 -21.236 0.0 -14.122983 0.0 
  4.660060119628906 12.84219970703125 10.61800048828125 -105.315 85.0554 70.265 -1.60405 -22.6652 -7.16506 12.0094 33.2041 -4.10606 -23.088 36.5709 21.171 25.3135 -59.0841 28.685 -123.5786 1.54773 -8.08464 -37.2754 -2.54798 38.3565 0.0 28.0042 0.0 8.63618 -7.23126 -1.97157 0.0 0.0 0.0 0.0 0.0 0.0 114.8715 -0.377791 2.57047 38.7446 3.28312 -14.9328 0.0 23.6908 0.0 -6.80392 -3.59459 12.8504 0.0 0.0 0.0 0.0 0.0 0.0 4.2362 9.76872 16.8924 0.0 3.01109 0.0 -6.22361 5.5387497 9.00516 0.0 -10.79545 0.0 6.12696 9.55175 13.649 0.0 8.92878 0.0 19.2994 7.69675 -21.2012 0.0 -14.064189 0.0 
  4.662969970703125 12.833499755859375 10.615999755859375 -104.895 85.0397 69.7446 -1.46701 -22.697 -6.97223 11.8666 33.3639 -4.11745 -22.8549 36.5327 20.9181 25.4083 -59.1427 28.7772 -123.5167 1.50898 -8.17116 -37.3189 -2.72266 38.2976 0.0 27.7794 0.0 8.5657 -7.24911 -1.85894 0.0 0.0 0.0 0.0 0.0 0.0 114.8862 -0.333174 2.54468 38.7578 3.29698 -14.9987 0.0 23.6031 0.0 -6.91616 -3.76646 12.7723 0.0 0.0 0.0 0.0 0.0 0.0 4.22132 9.64742 16.9213 0.0 3.4708 0.0 -6.11396 5.2218504 9.11257 0.0 -10.80234 0.0 6.03147 9.66631 14.2295 0.0 8.87973 0.0 19.6378 7.4988 -21.2631 0.0 -14.030317 0.0 
  4.666820068359375 12.82260009765625 10.614000244140625 -104.693 85.0046 69.3704 -1.18065 -22.7766 -6.61475 11.5856 33.5715 -4.14763 -22.5951 36.4721 20.6893 25.5923 -59.1804 28.9265 -123.3867 1.46079 -8.29357 -37.3562 -2.86945 38.3618 0.0 27.5975 0.0 8.52562 -7.27788 -1.98446 0.0 0.0 0.0 0.0 0.0 0.0 115.0035 -0.276904 2.55484 38.7084 3.31545 -14.9126 0.0 23.4203 0.0 -6.65694 -3.68674 12.8127 0.0 0.0 0.0 0.0 0.0 0.0 4.2025 9.53311 16.7984 0.0 3.94706 0.0 -6.01248 4.8625 9.43988 0.0 -10.8953705 0.0 5.91138 9.80411 14.5517 0.0 8.74682 0.0 19.9289 7.41445 -21.083 0.0 -13.95321 0.0 
  4.671929931640625 12.806500244140626 10.611099853515626 -104.564 84.9955 68.9974 -0.703394 -22.9155 -6.05345 11.0364 33.737 -4.21961 -22.2159 36.5387 20.3504 25.9571 -59.17 29.3242 -123.1336 1.36502 -8.38282 -37.4304 -2.98162 38.3687 0.0 27.3846 0.0 8.38761 -7.27672 -2.01229 0.0 0.0 0.0 0.0 0.0 0.0 115.2224 -0.220715 2.57025 38.6742 3.33198 -15.0764 0.0 23.141 0.0 -6.56309 -3.59794 12.8669 0.0 0.0 0.0 0.0 0.0 0.0 4.11562 9.45569 16.5291 0.0 4.3926 0.0 -5.96184 4.4680996 9.95948 0.0 -11.07458 0.0 5.77575 9.91901 15.4709 0.0 8.70214 0.0 20.2543 7.13132 -21.3466 0.0 -13.90544 0.0 
